<svg width="158" height="157" viewBox="0 0 158 157" fill="none" xmlns="http://www.w3.org/2000/svg">
<rect x="12" y="11.3543" width="134.438" height="134.438" rx="67.2188" fill="#E8EEF7"/>
<rect x="12" y="11.3543" width="134.438" height="134.438" rx="67.2188" stroke="#F8F9FB" stroke-width="22.4063"/>
<path d="M52.1726 92.8195C52.1726 93.8887 52.8155 94.853 53.8024 95.2642L76.6704 104.793V76.0368L63.3203 70.3727L52.1726 65.7278V92.8195Z" fill="#273B65"/>
<path d="M105.141 65.2538L80.643 76.0186V104.793L103.512 95.2642C104.498 94.853 105.141 93.8887 105.141 92.8195V65.2538Z" fill="#273B65"/>
<path d="M52.1726 92.8195C52.1726 93.8887 52.8155 94.853 53.8024 95.2642L76.6704 104.793V76.0368L63.3203 70.3727L52.1726 65.7278V92.8195Z" stroke="#19184C" stroke-width="1.125" stroke-linejoin="round"/>
<path d="M105.141 65.2538L80.643 76.0186V104.793L103.512 95.2642C104.498 94.853 105.141 93.8887 105.141 92.8195V65.2538Z" stroke="#19184C" stroke-width="1.125" stroke-linejoin="round"/>
<path d="M54.8882 62.5554L64.0742 66.3829L87.3378 56.2683L80.6947 53.5004C79.3909 52.9571 77.9241 52.9571 76.6202 53.5004L54.8882 62.5554Z" fill="#FDD696"/>
<path d="M92.4254 58.3882L69.1238 68.5194L78.6434 72.5582L101.904 62.3375L92.4254 58.3882Z" fill="#FDD696"/>
</svg>
